<svg width="788" height="161" viewBox="0 0 788 161" fill="none" xmlns="http://www.w3.org/2000/svg">
<g filter="url(#filter0_d_27_378)">
<path d="M213.672 57.2926C213.331 53.8551 211.868 51.1847 209.283 49.2812C206.697 47.3778 203.189 46.4261 198.757 46.4261C195.746 46.4261 193.203 46.8523 191.129 47.7045C189.055 48.5284 187.464 49.679 186.357 51.1562C185.277 52.6335 184.737 54.3097 184.737 56.1847C184.68 57.7472 185.007 59.1108 185.717 60.2756C186.456 61.4403 187.464 62.4489 188.743 63.3011C190.021 64.125 191.499 64.8494 193.175 65.4744C194.851 66.071 196.641 66.5824 198.544 67.0085L206.385 68.8835C210.192 69.7358 213.686 70.8722 216.868 72.2926C220.05 73.7131 222.805 75.4602 225.135 77.5341C227.464 79.608 229.268 82.0511 230.547 84.8636C231.854 87.6761 232.521 90.9006 232.55 94.5369C232.521 99.8778 231.158 104.509 228.459 108.429C225.788 112.321 221.925 115.347 216.868 117.506C211.839 119.636 205.774 120.702 198.672 120.702C191.626 120.702 185.49 119.622 180.263 117.463C175.064 115.304 171.001 112.108 168.075 107.875C165.178 103.614 163.658 98.3438 163.516 92.0653H181.371C181.57 94.9915 182.408 97.4347 183.885 99.3949C185.391 101.327 187.393 102.79 189.893 103.784C192.422 104.75 195.277 105.233 198.459 105.233C201.584 105.233 204.297 104.778 206.598 103.869C208.928 102.96 210.732 101.696 212.01 100.077C213.288 98.4574 213.928 96.5966 213.928 94.4943C213.928 92.5341 213.345 90.8864 212.18 89.5511C211.044 88.2159 209.368 87.0795 207.152 86.142C204.964 85.2045 202.28 84.3523 199.098 83.5852L189.595 81.1989C182.237 79.4091 176.428 76.6108 172.166 72.804C167.905 68.9972 165.788 63.8693 165.817 57.4205C165.788 52.1364 167.195 47.5199 170.036 43.571C172.905 39.6222 176.839 36.5398 181.839 34.3239C186.839 32.108 192.521 31 198.885 31C205.362 31 211.016 32.108 215.845 34.3239C220.703 36.5398 224.482 39.6222 227.18 43.571C229.879 47.5199 231.271 52.0937 231.357 57.2926H213.672Z" fill="black"/>
<path d="M259.813 32.1932V119.466H241.361V32.1932H259.813Z" fill="black"/>
<path d="M271.394 119.466V32.1932H289.845V104.253H327.26V119.466H271.394Z" fill="black"/>
<path d="M335.88 119.466V32.1932H354.331V70.6733H355.482L386.888 32.1932H409.005L376.618 71.2699L409.388 119.466H387.314L363.408 83.5852L354.331 94.6648V119.466H335.88Z" fill="black"/>
<path d="M415.014 119.466V32.1932H433.466V104.253H470.881V119.466H415.014Z" fill="black"/>
<path d="M479.5 119.466V32.1932H538.307V47.4062H497.952V68.2017H535.281V83.4148H497.952V104.253H538.477V119.466H479.5Z" fill="black"/>
<path d="M564.419 119.466H544.646L574.774 32.1932H598.553L628.638 119.466H608.865L587.004 52.1364H586.323L564.419 119.466ZM563.183 85.1619H609.888V99.5653H563.183V85.1619Z" fill="black"/>
<path d="M635.542 119.466V32.1932H669.974C676.565 32.1932 682.19 33.3722 686.849 35.7301C691.536 38.0597 695.102 41.3693 697.545 45.6591C700.017 49.9205 701.252 54.9347 701.252 60.7017C701.252 66.4972 700.002 71.483 697.502 75.6591C695.002 79.8068 691.38 82.9886 686.636 85.2045C681.92 87.4205 676.21 88.5284 669.505 88.5284H646.451V73.6989H666.522C670.045 73.6989 672.971 73.2159 675.301 72.25C677.63 71.2841 679.363 69.8352 680.5 67.9034C681.664 65.9716 682.247 63.571 682.247 60.7017C682.247 57.804 681.664 55.3608 680.5 53.3722C679.363 51.3835 677.616 49.8778 675.258 48.8551C672.929 47.804 669.988 47.2784 666.437 47.2784H653.994V119.466H635.542ZM682.673 79.75L704.363 119.466H683.994L662.772 79.75H682.673Z" fill="black"/>
<path d="M783.689 32.1932V119.466H767.752L729.783 64.5369H729.144V119.466H710.692V32.1932H726.885L764.556 87.0795H765.323V32.1932H783.689Z" fill="black"/>
</g>
<g filter="url(#filter1_d_27_378)">
<path d="M35.2346 124.15C35.1731 123.482 35.1338 122.801 35.1184 122.108L35.1183 119.936H69.1546V107.619H35.1179C35.117 69.4644 35.1184 13.1924 35.1184 13.1924C32.3618 -4.96016 6.59142 -3.82562 4.00002 13.1924L4 100.714C4.57618 121.306 17.3223 135.843 31.5529 144.256C41.2907 150.013 52.0498 153 59.7542 153H103.515V140.682H42.403C41.3082 139.389 40.2763 137.985 39.3524 136.468H86.0106V124.15H35.2346Z" fill="#202020"/>
<g filter="url(#filter2_f_27_378)">
<mask id="mask0_27_378" style="mask-type:alpha" maskUnits="userSpaceOnUse" x="4" y="0" width="100" height="153">
<path d="M35.2346 124.15C35.1731 123.482 35.1338 122.801 35.1184 122.108L35.1183 119.936H69.1546V107.619H35.1179C35.117 69.4644 35.1184 13.1924 35.1184 13.1924C32.3618 -4.96016 6.59142 -3.82562 4.00002 13.1924L4 100.714C4.57618 121.306 17.3223 135.843 31.5529 144.256C41.2907 150.013 52.0498 153 59.7542 153H103.515V140.682H42.403C41.3082 139.389 40.2763 137.985 39.3524 136.468H86.0106V124.15H35.2346Z" fill="#E4E4E4"/>
</mask>
<g mask="url(#mask0_27_378)">
<path opacity="0.2" d="M47.4367 30.6659C47.4367 30.6659 47.435 94.3281 47.4367 125.946C47.9204 144.946 59.1065 153 59.1065 153C40.143 153 17.2888 137.573 16.3184 107.231L16.3184 30.6659C18.9098 15.7783 44.6801 14.7858 47.4367 30.6659Z" fill="#FFF9F9"/>
</g>
</g>
<path d="M35.1184 13.1924C35.1184 13.1924 35.1166 85.9646 35.1184 122.108C35.602 143.826 59.1059 153 59.1059 153C40.1424 153 4.97044 135.398 4 100.714L4.00002 13.1924C6.59142 -3.82559 32.3618 -4.96012 35.1184 13.1924Z" fill="url(#paint0_linear_27_378)"/>
</g>
<defs>
<filter id="filter0_d_27_378" x="159.516" y="31" width="628.174" height="97.7017" filterUnits="userSpaceOnUse" color-interpolation-filters="sRGB">
<feFlood flood-opacity="0" result="BackgroundImageFix"/>
<feColorMatrix in="SourceAlpha" type="matrix" values="0 0 0 0 0 0 0 0 0 0 0 0 0 0 0 0 0 0 127 0" result="hardAlpha"/>
<feOffset dy="4"/>
<feGaussianBlur stdDeviation="2"/>
<feComposite in2="hardAlpha" operator="out"/>
<feColorMatrix type="matrix" values="0 0 0 0 0 0 0 0 0 0 0 0 0 0 0 0 0 0 0.25 0"/>
<feBlend mode="normal" in2="BackgroundImageFix" result="effect1_dropShadow_27_378"/>
<feBlend mode="normal" in="SourceGraphic" in2="effect1_dropShadow_27_378" result="shape"/>
</filter>
<filter id="filter1_d_27_378" x="0" y="0" width="107.515" height="161" filterUnits="userSpaceOnUse" color-interpolation-filters="sRGB">
<feFlood flood-opacity="0" result="BackgroundImageFix"/>
<feColorMatrix in="SourceAlpha" type="matrix" values="0 0 0 0 0 0 0 0 0 0 0 0 0 0 0 0 0 0 127 0" result="hardAlpha"/>
<feOffset dy="4"/>
<feGaussianBlur stdDeviation="2"/>
<feComposite in2="hardAlpha" operator="out"/>
<feColorMatrix type="matrix" values="0 0 0 0 0 0 0 0 0 0 0 0 0 0 0 0 0 0 0.25 0"/>
<feBlend mode="normal" in2="BackgroundImageFix" result="effect1_dropShadow_27_378"/>
<feBlend mode="normal" in="SourceGraphic" in2="effect1_dropShadow_27_378" result="shape"/>
</filter>
<filter id="filter2_f_27_378" x="12.3184" y="15.125" width="50.7881" height="141.875" filterUnits="userSpaceOnUse" color-interpolation-filters="sRGB">
<feFlood flood-opacity="0" result="BackgroundImageFix"/>
<feBlend mode="normal" in="SourceGraphic" in2="BackgroundImageFix" result="shape"/>
<feGaussianBlur stdDeviation="2" result="effect1_foregroundBlur_27_378"/>
</filter>
<linearGradient id="paint0_linear_27_378" x1="31.714" y1="2.93062e-05" x2="31.714" y2="152.902" gradientUnits="userSpaceOnUse">
<stop/>
<stop offset="0.612106"/>
<stop offset="0.721154" stop-color="#1F1F1F"/>
<stop offset="1" stop-color="#363636"/>
</linearGradient>
</defs>
</svg>
