<svg width="1024" height="1024" viewBox="0 0 1024 1024" fill="none" xmlns="http://www.w3.org/2000/svg">
<rect width="1024" height="1024" fill="white"/>
<g filter="url(#filter0_d_26_67)">
<path d="M457.195 630.303C457.002 628.203 456.878 626.062 456.83 623.881L456.829 617.055H563.833V578.33H456.828C456.825 458.382 456.83 281.474 456.83 281.474C448.163 224.406 367.147 227.973 359 281.474L359 556.622C360.811 621.362 400.882 667.063 445.621 693.511C476.234 711.609 510.059 721 534.28 721H671.854V682.275H479.731C476.289 678.209 473.045 673.796 470.141 669.028H616.824V630.303H457.195Z" fill="#202020"/>
<g filter="url(#filter1_f_26_67)">
<mask id="mask0_26_67" style="mask-type:alpha" maskUnits="userSpaceOnUse" x="359" y="240" width="313" height="481">
<path d="M457.195 630.303C457.002 628.203 456.878 626.062 456.83 623.881L456.829 617.055H563.833V578.33H456.828C456.825 458.382 456.83 281.474 456.83 281.474C448.163 224.406 367.147 227.973 359 281.474L359 556.622C360.811 621.362 400.882 667.063 445.621 693.511C476.234 711.609 510.059 721 534.28 721H671.854V682.275H479.731C476.289 678.209 473.045 673.796 470.141 669.028H616.824V630.303H457.195Z" fill="#E4E4E4"/>
</mask>
<g mask="url(#mask0_26_67)">
<path opacity="0.2" d="M495.554 336.407C495.554 336.407 495.548 536.548 495.554 635.949C497.074 695.68 532.241 721 532.241 721C472.624 721 400.775 672.501 397.724 577.111L397.724 336.407C405.871 289.604 486.888 286.483 495.554 336.407Z" fill="#FFF9F9"/>
</g>
</g>
<path d="M456.83 281.474C456.83 281.474 456.824 510.255 456.83 623.881C458.35 692.158 532.242 721 532.242 721C472.624 721 362.051 665.663 359 556.622L359 281.474C367.147 227.973 448.163 224.406 456.83 281.474Z" fill="url(#paint0_linear_26_67)"/>
</g>
<defs>
<filter id="filter0_d_26_67" x="355" y="240" width="320.854" height="489" filterUnits="userSpaceOnUse" color-interpolation-filters="sRGB">
<feFlood flood-opacity="0" result="BackgroundImageFix"/>
<feColorMatrix in="SourceAlpha" type="matrix" values="0 0 0 0 0 0 0 0 0 0 0 0 0 0 0 0 0 0 127 0" result="hardAlpha"/>
<feOffset dy="4"/>
<feGaussianBlur stdDeviation="2"/>
<feComposite in2="hardAlpha" operator="out"/>
<feColorMatrix type="matrix" values="0 0 0 0 0 0 0 0 0 0 0 0 0 0 0 0 0 0 0.25 0"/>
<feBlend mode="normal" in2="BackgroundImageFix" result="effect1_dropShadow_26_67"/>
<feBlend mode="normal" in="SourceGraphic" in2="effect1_dropShadow_26_67" result="shape"/>
</filter>
<filter id="filter1_f_26_67" x="393.724" y="296.125" width="142.517" height="428.875" filterUnits="userSpaceOnUse" color-interpolation-filters="sRGB">
<feFlood flood-opacity="0" result="BackgroundImageFix"/>
<feBlend mode="normal" in="SourceGraphic" in2="BackgroundImageFix" result="shape"/>
<feGaussianBlur stdDeviation="2" result="effect1_foregroundBlur_26_67"/>
</filter>
<linearGradient id="paint0_linear_26_67" x1="446.127" y1="240" x2="446.127" y2="720.692" gradientUnits="userSpaceOnUse">
<stop/>
<stop offset="0.612106"/>
<stop offset="0.721154" stop-color="#1F1F1F"/>
<stop offset="1" stop-color="#363636"/>
</linearGradient>
</defs>
</svg>
