<svg width="1024" height="1024" viewBox="0 0 1024 1024" fill="none" xmlns="http://www.w3.org/2000/svg">
<rect width="1024" height="1024" fill="#162F58"/>
<g filter="url(#filter0_d_26_83)">
<path d="M250.929 492.827C250.588 489.389 249.125 486.719 246.54 484.815C243.955 482.912 240.446 481.96 236.014 481.96C233.003 481.96 230.46 482.386 228.386 483.239C226.313 484.062 224.722 485.213 223.614 486.69C222.534 488.168 221.994 489.844 221.994 491.719C221.938 493.281 222.264 494.645 222.974 495.81C223.713 496.974 224.722 497.983 226 498.835C227.278 499.659 228.756 500.384 230.432 501.009C232.108 501.605 233.898 502.116 235.801 502.543L243.642 504.418C247.449 505.27 250.943 506.406 254.125 507.827C257.307 509.247 260.063 510.994 262.392 513.068C264.722 515.142 266.526 517.585 267.804 520.398C269.111 523.21 269.778 526.435 269.807 530.071C269.778 535.412 268.415 540.043 265.716 543.963C263.045 547.855 259.182 550.881 254.125 553.04C249.097 555.17 243.031 556.236 235.929 556.236C228.884 556.236 222.747 555.156 217.52 552.997C212.321 550.838 208.259 547.642 205.332 543.409C202.435 539.148 200.915 533.878 200.773 527.599H218.628C218.827 530.526 219.665 532.969 221.142 534.929C222.648 536.861 224.651 538.324 227.151 539.318C229.679 540.284 232.534 540.767 235.716 540.767C238.841 540.767 241.554 540.312 243.855 539.403C246.185 538.494 247.989 537.23 249.267 535.611C250.545 533.991 251.185 532.131 251.185 530.028C251.185 528.068 250.602 526.42 249.438 525.085C248.301 523.75 246.625 522.614 244.409 521.676C242.222 520.739 239.537 519.886 236.355 519.119L226.852 516.733C219.494 514.943 213.685 512.145 209.423 508.338C205.162 504.531 203.045 499.403 203.074 492.955C203.045 487.67 204.452 483.054 207.293 479.105C210.162 475.156 214.097 472.074 219.097 469.858C224.097 467.642 229.778 466.534 236.142 466.534C242.619 466.534 248.273 467.642 253.102 469.858C257.96 472.074 261.739 475.156 264.438 479.105C267.136 483.054 268.528 487.628 268.614 492.827H250.929ZM297.07 467.727V555H278.618V467.727H297.07ZM308.651 555V467.727H327.103V539.787H364.517V555H308.651ZM373.137 555V467.727H391.588V506.207H392.739L424.145 467.727H446.262L413.875 506.804L446.645 555H424.571L400.665 519.119L391.588 530.199V555H373.137ZM452.271 555V467.727H470.723V539.787H508.138V555H452.271ZM516.757 555V467.727H575.564V482.94H535.209V503.736H572.538V518.949H535.209V539.787H575.734V555H516.757ZM601.676 555H581.904L612.031 467.727H635.81L665.895 555H646.122L624.262 487.67H623.58L601.676 555ZM600.44 520.696H647.145V535.099H600.44V520.696ZM672.799 555V467.727H707.231C713.822 467.727 719.447 468.906 724.106 471.264C728.794 473.594 732.359 476.903 734.802 481.193C737.274 485.455 738.51 490.469 738.51 496.236C738.51 502.031 737.26 507.017 734.76 511.193C732.26 515.341 728.637 518.523 723.893 520.739C719.177 522.955 713.467 524.062 706.762 524.062H683.708V509.233H703.779C707.302 509.233 710.228 508.75 712.558 507.784C714.887 506.818 716.62 505.369 717.757 503.438C718.921 501.506 719.504 499.105 719.504 496.236C719.504 493.338 718.921 490.895 717.757 488.906C716.62 486.918 714.873 485.412 712.515 484.389C710.186 483.338 707.245 482.812 703.694 482.812H691.251V555H672.799ZM719.93 515.284L741.62 555H721.251L700.029 515.284H719.93ZM820.946 467.727V555H805.009L767.04 500.071H766.401V555H747.949V467.727H764.142L801.813 522.614H802.58V467.727H820.946Z" fill="white"/>
</g>
<defs>
<filter id="filter0_d_26_83" x="196.773" y="466.534" width="628.173" height="97.7018" filterUnits="userSpaceOnUse" color-interpolation-filters="sRGB">
<feFlood flood-opacity="0" result="BackgroundImageFix"/>
<feColorMatrix in="SourceAlpha" type="matrix" values="0 0 0 0 0 0 0 0 0 0 0 0 0 0 0 0 0 0 127 0" result="hardAlpha"/>
<feOffset dy="4"/>
<feGaussianBlur stdDeviation="2"/>
<feComposite in2="hardAlpha" operator="out"/>
<feColorMatrix type="matrix" values="0 0 0 0 0 0 0 0 0 0 0 0 0 0 0 0 0 0 0.25 0"/>
<feBlend mode="normal" in2="BackgroundImageFix" result="effect1_dropShadow_26_83"/>
<feBlend mode="normal" in="SourceGraphic" in2="effect1_dropShadow_26_83" result="shape"/>
</filter>
</defs>
</svg>
