<svg width="507" height="565" viewBox="0 0 507 565" fill="none" xmlns="http://www.w3.org/2000/svg">
<path d="M43.9432 492.261C43.6705 489.511 42.5 487.375 40.4318 485.852C38.3636 484.33 35.5568 483.568 32.0114 483.568C29.6023 483.568 27.5682 483.909 25.9091 484.591C24.25 485.25 22.9773 486.17 22.0909 487.352C21.2273 488.534 20.7955 489.875 20.7955 491.375C20.75 492.625 21.0114 493.716 21.5795 494.648C22.1705 495.58 22.9773 496.386 24 497.068C25.0227 497.727 26.2045 498.307 27.5455 498.807C28.8864 499.284 30.3182 499.693 31.8409 500.034L38.1136 501.534C41.1591 502.216 43.9545 503.125 46.5 504.261C49.0455 505.398 51.25 506.795 53.1136 508.455C54.9773 510.114 56.4205 512.068 57.4432 514.318C58.4886 516.568 59.0227 519.148 59.0455 522.057C59.0227 526.33 57.9318 530.034 55.7727 533.17C53.6364 536.284 50.5455 538.705 46.5 540.432C42.4773 542.136 37.625 542.989 31.9432 542.989C26.3068 542.989 21.3977 542.125 17.2159 540.398C13.0568 538.67 9.80682 536.114 7.46591 532.727C5.14773 529.318 3.93182 525.102 3.81818 520.08H18.1023C18.2614 522.42 18.9318 524.375 20.1136 525.943C21.3182 527.489 22.9205 528.659 24.9205 529.455C26.9432 530.227 29.2273 530.614 31.7727 530.614C34.2727 530.614 36.4432 530.25 38.2841 529.523C40.1477 528.795 41.5909 527.784 42.6136 526.489C43.6364 525.193 44.1477 523.705 44.1477 522.023C44.1477 520.455 43.6818 519.136 42.75 518.068C41.8409 517 40.5 516.091 38.7273 515.341C36.9773 514.591 34.8295 513.909 32.2841 513.295L24.6818 511.386C18.7955 509.955 14.1477 507.716 10.7386 504.67C7.32955 501.625 5.63636 497.523 5.65909 492.364C5.63636 488.136 6.76136 484.443 9.03409 481.284C11.3295 478.125 14.4773 475.659 18.4773 473.886C22.4773 472.114 27.0227 471.227 32.1136 471.227C37.2955 471.227 41.8182 472.114 45.6818 473.886C49.5682 475.659 52.5909 478.125 54.75 481.284C56.9091 484.443 58.0227 488.102 58.0909 492.261H43.9432ZM80.8558 472.182V542H66.0944V472.182H80.8558ZM90.1207 542V472.182H104.882V529.83H134.814V542H90.1207ZM141.709 542V472.182H156.471V502.966H157.391L182.516 472.182H200.209L174.3 503.443L200.516 542H182.857L163.732 513.295L156.471 522.159V542H141.709ZM205.017 542V472.182H219.778V529.83H249.71V542H205.017ZM256.606 542V472.182H303.651V484.352H271.367V500.989H301.231V513.159H271.367V529.83H303.788V542H256.606ZM324.541 542H308.723L332.825 472.182H351.848L375.916 542H360.098L342.609 488.136H342.064L324.541 542ZM323.552 514.557H360.916V526.08H323.552V514.557ZM381.439 542V472.182H408.985C414.258 472.182 418.758 473.125 422.485 475.011C426.235 476.875 429.087 479.523 431.042 482.955C433.019 486.364 434.008 490.375 434.008 494.989C434.008 499.625 433.008 503.614 431.008 506.955C429.008 510.273 426.11 512.818 422.314 514.591C418.542 516.364 413.974 517.25 408.61 517.25H390.167V505.386H406.224C409.042 505.386 411.383 505 413.246 504.227C415.11 503.455 416.496 502.295 417.405 500.75C418.337 499.205 418.803 497.284 418.803 494.989C418.803 492.67 418.337 490.716 417.405 489.125C416.496 487.534 415.099 486.33 413.212 485.511C411.349 484.67 408.996 484.25 406.155 484.25H396.201V542H381.439ZM419.144 510.227L436.496 542H420.201L403.224 510.227H419.144ZM499.957 472.182V542H487.207L456.832 498.057H456.321V542H441.559V472.182H454.514L484.65 516.091H485.264V472.182H499.957Z" fill="white"/>
<path d="M212.861 329.355C212.698 327.583 212.594 325.776 212.553 323.936L212.553 318.176H302.847V285.498H212.552C212.549 184.28 212.553 34.9977 212.553 34.9977C205.24 -13.1587 136.875 -10.1489 130 34.9977L130 267.18C131.529 321.811 165.342 360.375 203.094 382.693C228.928 397.965 257.47 405.889 277.909 405.889H394V373.212H231.878C228.974 369.78 226.237 366.057 223.785 362.033H347.563V329.355H212.861Z" fill="#E4E4E4"/>
<g filter="url(#filter0_f_26_229)">
<mask id="mask0_26_229" style="mask-type:alpha" maskUnits="userSpaceOnUse" x="130" y="0" width="264" height="406">
<path d="M212.861 329.355C212.698 327.583 212.594 325.776 212.553 323.936L212.553 318.176H302.847V285.498H212.552C212.549 184.28 212.553 34.9977 212.553 34.9977C205.24 -13.1587 136.875 -10.1489 130 34.9977L130 267.18C131.529 321.811 165.342 360.375 203.094 382.693C228.928 397.965 257.47 405.889 277.909 405.889H394V373.212H231.878C228.974 369.78 226.237 366.057 223.785 362.033H347.563V329.355H212.861Z" fill="#E4E4E4"/>
</mask>
<g mask="url(#mask0_26_229)">
<path opacity="0.2" d="M245.23 81.3527C245.23 81.3527 245.226 250.24 245.23 334.12C246.513 384.523 276.189 405.889 276.189 405.889C225.881 405.889 165.252 364.964 162.677 284.469L162.677 81.3527C169.552 41.8577 237.917 39.2248 245.23 81.3527Z" fill="black"/>
</g>
</g>
<path d="M212.553 34.9977C212.553 34.9977 212.548 228.053 212.553 323.936C213.836 381.551 276.189 405.889 276.189 405.889C225.881 405.889 132.574 359.193 130 267.18L130 34.9977C136.875 -10.1489 205.24 -13.1587 212.553 34.9977Z" fill="url(#paint0_linear_26_229)"/>
<defs>
<filter id="filter0_f_26_229" x="158.677" y="46.7361" width="121.511" height="363.153" filterUnits="userSpaceOnUse" color-interpolation-filters="sRGB">
<feFlood flood-opacity="0" result="BackgroundImageFix"/>
<feBlend mode="normal" in="SourceGraphic" in2="BackgroundImageFix" result="shape"/>
<feGaussianBlur stdDeviation="2" result="effect1_foregroundBlur_26_229"/>
</filter>
<linearGradient id="paint0_linear_26_229" x1="203.522" y1="-3.21374e-06" x2="203.522" y2="405.63" gradientUnits="userSpaceOnUse">
<stop stop-color="white"/>
<stop offset="0.612106" stop-color="white"/>
<stop offset="0.721154" stop-color="#DEDEDE"/>
<stop offset="1" stop-color="#A9A9A9"/>
</linearGradient>
</defs>
</svg>
