<svg width="1024" height="1024" viewBox="0 0 1024 1024" fill="none" xmlns="http://www.w3.org/2000/svg">
<path d="M322.156 493.293C321.815 489.855 320.352 487.185 317.767 485.281C315.182 483.378 311.673 482.426 307.241 482.426C304.23 482.426 301.688 482.852 299.614 483.705C297.54 484.528 295.949 485.679 294.841 487.156C293.761 488.634 293.222 490.31 293.222 492.185C293.165 493.747 293.491 495.111 294.202 496.276C294.94 497.44 295.949 498.449 297.227 499.301C298.506 500.125 299.983 500.849 301.659 501.474C303.335 502.071 305.125 502.582 307.028 503.009L314.869 504.884C318.676 505.736 322.17 506.872 325.352 508.293C328.534 509.713 331.29 511.46 333.619 513.534C335.949 515.608 337.753 518.051 339.031 520.864C340.338 523.676 341.006 526.901 341.034 530.537C341.006 535.878 339.642 540.509 336.943 544.429C334.273 548.321 330.409 551.347 325.352 553.506C320.324 555.636 314.259 556.702 307.156 556.702C300.111 556.702 293.974 555.622 288.747 553.463C283.548 551.304 279.486 548.108 276.56 543.875C273.662 539.614 272.142 534.344 272 528.065H289.855C290.054 530.991 290.892 533.435 292.369 535.395C293.875 537.327 295.878 538.79 298.378 539.784C300.906 540.75 303.761 541.233 306.943 541.233C310.068 541.233 312.781 540.778 315.082 539.869C317.412 538.96 319.216 537.696 320.494 536.077C321.773 534.457 322.412 532.597 322.412 530.494C322.412 528.534 321.83 526.886 320.665 525.551C319.528 524.216 317.852 523.08 315.636 522.142C313.449 521.205 310.764 520.352 307.582 519.585L298.08 517.199C290.722 515.409 284.912 512.611 280.651 508.804C276.389 504.997 274.273 499.869 274.301 493.42C274.273 488.136 275.679 483.52 278.52 479.571C281.389 475.622 285.324 472.54 290.324 470.324C295.324 468.108 301.006 467 307.369 467C313.847 467 319.5 468.108 324.33 470.324C329.188 472.54 332.966 475.622 335.665 479.571C338.364 483.52 339.756 488.094 339.841 493.293H322.156Z" fill="white"/>
<path d="M368.297 468.193V555.466H349.845V468.193H368.297Z" fill="white"/>
<path d="M379.878 555.466V468.193H398.33V540.253H435.745V555.466H379.878Z" fill="white"/>
<path d="M444.364 555.466V468.193H462.816V506.673H463.966L495.373 468.193H517.489L485.103 507.27L517.873 555.466H495.799L471.892 519.585L462.816 530.665V555.466H444.364Z" fill="white"/>
<path d="M523.498 555.466V468.193H541.95V540.253H579.365V555.466H523.498Z" fill="white"/>
<path d="M587.984 555.466V468.193H646.791V483.406H606.436V504.202H643.766V519.415H606.436V540.253H646.962V555.466H587.984Z" fill="white"/>
<path d="M672.904 555.466H653.131L683.259 468.193H707.037L737.122 555.466H717.35L695.489 488.136H694.807L672.904 555.466ZM671.668 521.162H718.372V535.565H671.668V521.162Z" fill="white"/>
<path d="M744.027 555.466V468.193H778.458C785.049 468.193 790.674 469.372 795.333 471.73C800.021 474.06 803.586 477.369 806.029 481.659C808.501 485.92 809.737 490.935 809.737 496.702C809.737 502.497 808.487 507.483 805.987 511.659C803.487 515.807 799.865 518.989 795.12 521.205C790.404 523.42 784.694 524.528 777.99 524.528H754.936V509.699H775.007C778.529 509.699 781.456 509.216 783.785 508.25C786.115 507.284 787.848 505.835 788.984 503.903C790.149 501.972 790.731 499.571 790.731 496.702C790.731 493.804 790.149 491.361 788.984 489.372C787.848 487.384 786.1 485.878 783.742 484.855C781.413 483.804 778.473 483.278 774.921 483.278H762.478V555.466H744.027ZM791.157 515.75L812.848 555.466H792.478L771.257 515.75H791.157Z" fill="white"/>
<path d="M892.174 468.193V555.466H876.236L838.267 500.537H837.628V555.466H819.177V468.193H835.37L873.04 523.08H873.807V468.193H892.174Z" fill="white"/>
<path d="M143.491 559.812C143.429 559.146 143.39 558.467 143.375 557.775L143.375 555.61H177.318V543.325H143.374C143.374 505.275 143.375 449.156 143.375 449.156C140.626 431.053 114.926 432.185 112.341 449.156L112.341 536.439C112.916 556.976 125.627 571.473 139.819 579.863C149.53 585.604 160.26 588.583 167.944 588.583H211.585V576.299H150.64C149.548 575.009 148.519 573.609 147.597 572.096H194.128V559.812H143.491Z" fill="#E4E4E4"/>
<g filter="url(#filter0_f_27_281)">
<mask id="mask0_27_281" style="mask-type:alpha" maskUnits="userSpaceOnUse" x="112" y="436" width="100" height="153">
<path d="M143.491 559.812C143.429 559.146 143.39 558.467 143.375 557.775L143.375 555.61H177.318V543.325H143.374C143.374 505.275 143.375 449.156 143.375 449.156C140.626 431.053 114.926 432.185 112.341 449.156L112.341 536.439C112.916 556.976 125.627 571.473 139.819 579.863C149.53 585.604 160.26 588.583 167.944 588.583H211.585V576.299H150.64C149.548 575.009 148.519 573.609 147.597 572.096H194.128V559.812H143.491Z" fill="#E4E4E4"/>
</mask>
<g mask="url(#mask0_27_281)">
<path opacity="0.2" d="M155.659 466.582C155.659 466.582 155.657 530.071 155.659 561.603C156.141 580.551 167.297 588.583 167.297 588.583C148.385 588.583 125.593 573.198 124.625 542.939L124.625 466.582C127.209 451.735 152.909 450.745 155.659 466.582Z" fill="black"/>
</g>
</g>
<path d="M143.375 449.156C143.375 449.156 143.373 521.73 143.375 557.775C143.857 579.434 167.297 588.583 167.297 588.583C148.385 588.583 113.309 571.029 112.341 536.439L112.341 449.156C114.926 432.185 140.626 431.053 143.375 449.156Z" fill="url(#paint0_linear_27_281)"/>
<path d="M322.156 493.293C321.815 489.855 320.352 487.185 317.767 485.281C315.182 483.378 311.673 482.426 307.241 482.426C304.23 482.426 301.688 482.852 299.614 483.705C297.54 484.528 295.949 485.679 294.841 487.156C293.761 488.634 293.222 490.31 293.222 492.185C293.165 493.747 293.491 495.111 294.202 496.276C294.94 497.44 295.949 498.449 297.227 499.301C298.506 500.125 299.983 500.849 301.659 501.474C303.335 502.071 305.125 502.582 307.028 503.009L314.869 504.884C318.676 505.736 322.17 506.872 325.352 508.293C328.534 509.713 331.29 511.46 333.619 513.534C335.949 515.608 337.753 518.051 339.031 520.864C340.338 523.676 341.006 526.901 341.034 530.537C341.006 535.878 339.642 540.509 336.943 544.429C334.273 548.321 330.409 551.347 325.352 553.506C320.324 555.636 314.259 556.702 307.156 556.702C300.111 556.702 293.974 555.622 288.747 553.463C283.548 551.304 279.486 548.108 276.56 543.875C273.662 539.614 272.142 534.344 272 528.065H289.855C290.054 530.991 290.892 533.435 292.369 535.395C293.875 537.327 295.878 538.79 298.378 539.784C300.906 540.75 303.761 541.233 306.943 541.233C310.068 541.233 312.781 540.778 315.082 539.869C317.412 538.96 319.216 537.696 320.494 536.077C321.773 534.457 322.412 532.597 322.412 530.494C322.412 528.534 321.83 526.886 320.665 525.551C319.528 524.216 317.852 523.08 315.636 522.142C313.449 521.205 310.764 520.352 307.582 519.585L298.08 517.199C290.722 515.409 284.912 512.611 280.651 508.804C276.389 504.997 274.273 499.869 274.301 493.42C274.273 488.136 275.679 483.52 278.52 479.571C281.389 475.622 285.324 472.54 290.324 470.324C295.324 468.108 301.006 467 307.369 467C313.847 467 319.5 468.108 324.33 470.324C329.188 472.54 332.966 475.622 335.665 479.571C338.364 483.52 339.756 488.094 339.841 493.293H322.156Z" fill="white"/>
<path d="M368.297 468.193V555.466H349.845V468.193H368.297Z" fill="white"/>
<path d="M379.878 555.466V468.193H398.33V540.253H435.745V555.466H379.878Z" fill="white"/>
<path d="M444.364 555.466V468.193H462.816V506.673H463.966L495.373 468.193H517.489L485.103 507.27L517.873 555.466H495.799L471.892 519.585L462.816 530.665V555.466H444.364Z" fill="white"/>
<path d="M523.498 555.466V468.193H541.95V540.253H579.365V555.466H523.498Z" fill="white"/>
<path d="M587.984 555.466V468.193H646.791V483.406H606.436V504.202H643.766V519.415H606.436V540.253H646.962V555.466H587.984Z" fill="white"/>
<path d="M672.904 555.466H653.131L683.259 468.193H707.037L737.122 555.466H717.35L695.489 488.136H694.807L672.904 555.466ZM671.668 521.162H718.372V535.565H671.668V521.162Z" fill="white"/>
<path d="M744.027 555.466V468.193H778.458C785.049 468.193 790.674 469.372 795.333 471.73C800.021 474.06 803.586 477.369 806.029 481.659C808.501 485.92 809.737 490.935 809.737 496.702C809.737 502.497 808.487 507.483 805.987 511.659C803.487 515.807 799.865 518.989 795.12 521.205C790.404 523.42 784.694 524.528 777.99 524.528H754.936V509.699H775.007C778.529 509.699 781.456 509.216 783.785 508.25C786.115 507.284 787.848 505.835 788.984 503.903C790.149 501.972 790.731 499.571 790.731 496.702C790.731 493.804 790.149 491.361 788.984 489.372C787.848 487.384 786.1 485.878 783.742 484.855C781.413 483.804 778.473 483.278 774.921 483.278H762.478V555.466H744.027ZM791.157 515.75L812.848 555.466H792.478L771.257 515.75H791.157Z" fill="white"/>
<path d="M892.174 468.193V555.466H876.236L838.267 500.537H837.628V555.466H819.177V468.193H835.37L873.04 523.08H873.807V468.193H892.174Z" fill="white"/>
<path d="M143.491 559.812C143.429 559.146 143.39 558.467 143.375 557.775L143.375 555.61H177.318V543.325H143.374C143.374 505.275 143.375 449.156 143.375 449.156C140.626 431.053 114.926 432.185 112.341 449.156L112.341 536.439C112.916 556.976 125.627 571.473 139.819 579.863C149.53 585.604 160.26 588.583 167.944 588.583H211.585V576.299H150.64C149.548 575.009 148.519 573.609 147.597 572.096H194.128V559.812H143.491Z" fill="#E4E4E4"/>
<g filter="url(#filter1_f_27_281)">
<mask id="mask1_27_281" style="mask-type:alpha" maskUnits="userSpaceOnUse" x="112" y="436" width="100" height="153">
<path d="M143.491 559.812C143.429 559.146 143.39 558.467 143.375 557.775L143.375 555.61H177.318V543.325H143.374C143.374 505.275 143.375 449.156 143.375 449.156C140.626 431.053 114.926 432.185 112.341 449.156L112.341 536.439C112.916 556.976 125.627 571.473 139.819 579.863C149.53 585.604 160.26 588.583 167.944 588.583H211.585V576.299H150.64C149.548 575.009 148.519 573.609 147.597 572.096H194.128V559.812H143.491Z" fill="#E4E4E4"/>
</mask>
<g mask="url(#mask1_27_281)">
<path opacity="0.2" d="M155.659 466.582C155.659 466.582 155.657 530.071 155.659 561.603C156.141 580.551 167.297 588.583 167.297 588.583C148.385 588.583 125.593 573.198 124.625 542.939L124.625 466.582C127.209 451.735 152.909 450.745 155.659 466.582Z" fill="black"/>
</g>
</g>
<path d="M143.375 449.156C143.375 449.156 143.373 521.73 143.375 557.775C143.857 579.434 167.297 588.583 167.297 588.583C148.385 588.583 113.309 571.029 112.341 536.439L112.341 449.156C114.926 432.185 140.626 431.053 143.375 449.156Z" fill="url(#paint1_linear_27_281)"/>
<defs>
<filter id="filter0_f_27_281" x="120.625" y="451.073" width="50.6714" height="141.51" filterUnits="userSpaceOnUse" color-interpolation-filters="sRGB">
<feFlood flood-opacity="0" result="BackgroundImageFix"/>
<feBlend mode="normal" in="SourceGraphic" in2="BackgroundImageFix" result="shape"/>
<feGaussianBlur stdDeviation="2" result="effect1_foregroundBlur_27_281"/>
</filter>
<filter id="filter1_f_27_281" x="120.625" y="451.073" width="50.6714" height="141.51" filterUnits="userSpaceOnUse" color-interpolation-filters="sRGB">
<feFlood flood-opacity="0" result="BackgroundImageFix"/>
<feBlend mode="normal" in="SourceGraphic" in2="BackgroundImageFix" result="shape"/>
<feGaussianBlur stdDeviation="2" result="effect1_foregroundBlur_27_281"/>
</filter>
<linearGradient id="paint0_linear_27_281" x1="139.98" y1="436" x2="139.98" y2="588.485" gradientUnits="userSpaceOnUse">
<stop stop-color="white"/>
<stop offset="0.612106" stop-color="white"/>
<stop offset="0.721154" stop-color="#DEDEDE"/>
<stop offset="1" stop-color="#A9A9A9"/>
</linearGradient>
<linearGradient id="paint1_linear_27_281" x1="139.98" y1="436" x2="139.98" y2="588.485" gradientUnits="userSpaceOnUse">
<stop stop-color="white"/>
<stop offset="0.612106" stop-color="white"/>
<stop offset="0.721154" stop-color="#DEDEDE"/>
<stop offset="1" stop-color="#A9A9A9"/>
</linearGradient>
</defs>
</svg>
