<svg width="1024" height="1024" viewBox="0 0 1024 1024" fill="none" xmlns="http://www.w3.org/2000/svg">
<rect width="1024" height="1024" fill="black"/>
<g filter="url(#filter0_d_26_135)">
<path d="M250.929 493.827C250.588 490.389 249.125 487.719 246.54 485.815C243.955 483.912 240.446 482.96 236.014 482.96C233.003 482.96 230.46 483.386 228.386 484.239C226.313 485.062 224.722 486.213 223.614 487.69C222.534 489.168 221.994 490.844 221.994 492.719C221.938 494.281 222.264 495.645 222.974 496.81C223.713 497.974 224.722 498.983 226 499.835C227.278 500.659 228.756 501.384 230.432 502.009C232.108 502.605 233.898 503.116 235.801 503.543L243.642 505.418C247.449 506.27 250.943 507.406 254.125 508.827C257.307 510.247 260.063 511.994 262.392 514.068C264.722 516.142 266.526 518.585 267.804 521.398C269.111 524.21 269.778 527.435 269.807 531.071C269.778 536.412 268.415 541.043 265.716 544.963C263.045 548.855 259.182 551.881 254.125 554.04C249.097 556.17 243.031 557.236 235.929 557.236C228.884 557.236 222.747 556.156 217.52 553.997C212.321 551.838 208.259 548.642 205.332 544.409C202.435 540.148 200.915 534.878 200.773 528.599H218.628C218.827 531.526 219.665 533.969 221.142 535.929C222.648 537.861 224.651 539.324 227.151 540.318C229.679 541.284 232.534 541.767 235.716 541.767C238.841 541.767 241.554 541.312 243.855 540.403C246.185 539.494 247.989 538.23 249.267 536.611C250.545 534.991 251.185 533.131 251.185 531.028C251.185 529.068 250.602 527.42 249.438 526.085C248.301 524.75 246.625 523.614 244.409 522.676C242.222 521.739 239.537 520.886 236.355 520.119L226.852 517.733C219.494 515.943 213.685 513.145 209.423 509.338C205.162 505.531 203.045 500.403 203.074 493.955C203.045 488.67 204.452 484.054 207.293 480.105C210.162 476.156 214.097 473.074 219.097 470.858C224.097 468.642 229.778 467.534 236.142 467.534C242.619 467.534 248.273 468.642 253.102 470.858C257.96 473.074 261.739 476.156 264.438 480.105C267.136 484.054 268.528 488.628 268.614 493.827H250.929ZM297.07 468.727V556H278.618V468.727H297.07ZM308.651 556V468.727H327.103V540.787H364.517V556H308.651ZM373.137 556V468.727H391.588V507.207H392.739L424.145 468.727H446.262L413.875 507.804L446.645 556H424.571L400.665 520.119L391.588 531.199V556H373.137ZM452.271 556V468.727H470.723V540.787H508.138V556H452.271ZM516.757 556V468.727H575.564V483.94H535.209V504.736H572.538V519.949H535.209V540.787H575.734V556H516.757ZM601.676 556H581.904L612.031 468.727H635.81L665.895 556H646.122L624.262 488.67H623.58L601.676 556ZM600.44 521.696H647.145V536.099H600.44V521.696ZM672.799 556V468.727H707.231C713.822 468.727 719.447 469.906 724.106 472.264C728.794 474.594 732.359 477.903 734.802 482.193C737.274 486.455 738.51 491.469 738.51 497.236C738.51 503.031 737.26 508.017 734.76 512.193C732.26 516.341 728.637 519.523 723.893 521.739C719.177 523.955 713.467 525.062 706.762 525.062H683.708V510.233H703.779C707.302 510.233 710.228 509.75 712.558 508.784C714.887 507.818 716.62 506.369 717.757 504.438C718.921 502.506 719.504 500.105 719.504 497.236C719.504 494.338 718.921 491.895 717.757 489.906C716.62 487.918 714.873 486.412 712.515 485.389C710.186 484.338 707.245 483.812 703.694 483.812H691.251V556H672.799ZM719.93 516.284L741.62 556H721.251L700.029 516.284H719.93ZM820.946 468.727V556H805.009L767.04 501.071H766.401V556H747.949V468.727H764.142L801.813 523.614H802.58V468.727H820.946Z" fill="white"/>
</g>
<defs>
<filter id="filter0_d_26_135" x="196.773" y="467.534" width="628.173" height="97.7017" filterUnits="userSpaceOnUse" color-interpolation-filters="sRGB">
<feFlood flood-opacity="0" result="BackgroundImageFix"/>
<feColorMatrix in="SourceAlpha" type="matrix" values="0 0 0 0 0 0 0 0 0 0 0 0 0 0 0 0 0 0 127 0" result="hardAlpha"/>
<feOffset dy="4"/>
<feGaussianBlur stdDeviation="2"/>
<feComposite in2="hardAlpha" operator="out"/>
<feColorMatrix type="matrix" values="0 0 0 0 1 0 0 0 0 1 0 0 0 0 1 0 0 0 0.25 0"/>
<feBlend mode="normal" in2="BackgroundImageFix" result="effect1_dropShadow_26_135"/>
<feBlend mode="normal" in="SourceGraphic" in2="effect1_dropShadow_26_135" result="shape"/>
</filter>
</defs>
</svg>
