<svg width="633" height="145" viewBox="0 0 633 145" fill="none" xmlns="http://www.w3.org/2000/svg">
<g filter="url(#filter0_d_26_280)">
<path d="M54.929 53.8267C54.5881 50.3892 53.125 47.7187 50.5398 45.8153C47.9545 43.9119 44.446 42.9602 40.0142 42.9602C37.0028 42.9602 34.4602 43.3864 32.3864 44.2386C30.3125 45.0625 28.7216 46.2131 27.6136 47.6903C26.5341 49.1676 25.9943 50.8438 25.9943 52.7188C25.9375 54.2813 26.2642 55.6449 26.9744 56.8097C27.7131 57.9744 28.7216 58.983 30 59.8352C31.2784 60.6591 32.7557 61.3835 34.4318 62.0085C36.108 62.6051 37.8977 63.1165 39.8011 63.5426L47.642 65.4176C51.4489 66.2699 54.9432 67.4062 58.125 68.8267C61.3068 70.2472 64.0625 71.9943 66.392 74.0682C68.7216 76.142 70.5256 78.5852 71.804 81.3977C73.1108 84.2102 73.7784 87.4347 73.8068 91.071C73.7784 96.4119 72.4148 101.043 69.7159 104.963C67.0455 108.855 63.1818 111.881 58.125 114.04C53.0966 116.17 47.0313 117.236 39.929 117.236C32.8835 117.236 26.7472 116.156 21.5199 113.997C16.321 111.838 12.2585 108.642 9.33239 104.409C6.43466 100.148 4.91477 94.8778 4.77273 88.5994H22.6278C22.8267 91.5256 23.6648 93.9687 25.142 95.929C26.6477 97.8608 28.6506 99.3239 31.1506 100.318C33.679 101.284 36.5341 101.767 39.7159 101.767C42.8409 101.767 45.554 101.312 47.8551 100.403C50.1847 99.4943 51.9886 98.2301 53.267 96.6108C54.5455 94.9915 55.1847 93.1307 55.1847 91.0284C55.1847 89.0682 54.6023 87.4205 53.4375 86.0852C52.3011 84.75 50.625 83.6136 48.4091 82.6761C46.2216 81.7386 43.5369 80.8864 40.3551 80.1193L30.8523 77.733C23.4943 75.9432 17.6847 73.1449 13.4233 69.3381C9.16193 65.5312 7.04545 60.4034 7.07386 53.9545C7.04545 48.6705 8.4517 44.054 11.2926 40.1051C14.1619 36.1562 18.0966 33.0739 23.0966 30.858C28.0966 28.642 33.7784 27.5341 40.142 27.5341C46.6193 27.5341 52.2727 28.642 57.1023 30.858C61.9602 33.0739 65.7386 36.1562 68.4375 40.1051C71.1364 44.054 72.5284 48.6278 72.6136 53.8267H54.929ZM101.07 28.7273V116H82.618V28.7273H101.07ZM112.651 116V28.7273H131.103V100.787H168.517V116H112.651ZM177.137 116V28.7273H195.588V67.2074H196.739L228.145 28.7273H250.262L217.875 67.804L250.645 116H228.571L204.665 80.1193L195.588 91.1989V116H177.137ZM256.271 116V28.7273H274.723V100.787H312.138V116H256.271ZM320.757 116V28.7273H379.564V43.9403H339.209V64.7358H376.538V79.9489H339.209V100.787H379.734V116H320.757ZM405.676 116H385.904L416.031 28.7273H439.81L469.895 116H450.122L428.262 48.6705H427.58L405.676 116ZM404.44 81.696H451.145V96.0994H404.44V81.696ZM476.799 116V28.7273H511.231C517.822 28.7273 523.447 29.9062 528.106 32.2642C532.794 34.5937 536.359 37.9034 538.802 42.1932C541.274 46.4545 542.51 51.4687 542.51 57.2358C542.51 63.0312 541.26 68.017 538.76 72.1932C536.26 76.3409 532.637 79.5227 527.893 81.7386C523.177 83.9545 517.467 85.0625 510.762 85.0625H487.708V70.233H507.779C511.302 70.233 514.228 69.75 516.558 68.7841C518.887 67.8182 520.62 66.3693 521.757 64.4375C522.921 62.5057 523.504 60.1051 523.504 57.2358C523.504 54.3381 522.921 51.8949 521.757 49.9062C520.62 47.9176 518.873 46.4119 516.515 45.3892C514.186 44.3381 511.245 43.8125 507.694 43.8125H495.251V116H476.799ZM523.93 76.2841L545.62 116H525.251L504.029 76.2841H523.93ZM624.946 28.7273V116H609.009L571.04 61.071H570.401V116H551.949V28.7273H568.142L605.813 83.6136H606.58V28.7273H624.946Z" fill="black"/>
</g>
<defs>
<filter id="filter0_d_26_280" x="0.772461" y="27.5341" width="628.174" height="97.7017" filterUnits="userSpaceOnUse" color-interpolation-filters="sRGB">
<feFlood flood-opacity="0" result="BackgroundImageFix"/>
<feColorMatrix in="SourceAlpha" type="matrix" values="0 0 0 0 0 0 0 0 0 0 0 0 0 0 0 0 0 0 127 0" result="hardAlpha"/>
<feOffset dy="4"/>
<feGaussianBlur stdDeviation="2"/>
<feComposite in2="hardAlpha" operator="out"/>
<feColorMatrix type="matrix" values="0 0 0 0 0 0 0 0 0 0 0 0 0 0 0 0 0 0 0.25 0"/>
<feBlend mode="normal" in2="BackgroundImageFix" result="effect1_dropShadow_26_280"/>
<feBlend mode="normal" in="SourceGraphic" in2="effect1_dropShadow_26_280" result="shape"/>
</filter>
</defs>
</svg>
