<svg width="508" height="565" viewBox="0 0 508 565" fill="none" xmlns="http://www.w3.org/2000/svg">
<g filter="url(#filter0_d_26_279)">
<path d="M44.1248 492.261C43.8521 489.511 42.6816 487.375 40.6135 485.852C38.5453 484.33 35.7385 483.568 32.193 483.568C29.7839 483.568 27.7498 483.909 26.0907 484.591C24.4316 485.25 23.1589 486.17 22.2726 487.352C21.4089 488.534 20.9771 489.875 20.9771 491.375C20.9316 492.625 21.193 493.716 21.7612 494.648C22.3521 495.58 23.1589 496.386 24.1816 497.068C25.2044 497.727 26.3862 498.307 27.7271 498.807C29.068 499.284 30.4998 499.693 32.0226 500.034L38.2953 501.534C41.3407 502.216 44.1362 503.125 46.6816 504.261C49.2271 505.398 51.4316 506.795 53.2953 508.455C55.1589 510.114 56.6021 512.068 57.6248 514.318C58.6703 516.568 59.2044 519.148 59.2271 522.057C59.2044 526.33 58.1135 530.034 55.9544 533.17C53.818 536.284 50.7271 538.705 46.6816 540.432C42.6589 542.136 37.8066 542.989 32.1248 542.989C26.4885 542.989 21.5794 542.125 17.3976 540.398C13.2385 538.67 9.98846 536.114 7.64755 532.727C5.32937 529.318 4.11346 525.102 3.99982 520.08H18.2839C18.443 522.42 19.1135 524.375 20.2953 525.943C21.4998 527.489 23.1021 528.659 25.1021 529.455C27.1248 530.227 29.4089 530.614 31.9544 530.614C34.4544 530.614 36.6248 530.25 38.4657 529.523C40.3294 528.795 41.7726 527.784 42.7953 526.489C43.818 525.193 44.3294 523.705 44.3294 522.023C44.3294 520.455 43.8635 519.136 42.9316 518.068C42.0226 517 40.6816 516.091 38.9089 515.341C37.1589 514.591 35.0112 513.909 32.4657 513.295L24.8635 511.386C18.9771 509.955 14.3294 507.716 10.9203 504.67C7.51119 501.625 5.818 497.523 5.84073 492.364C5.818 488.136 6.943 484.443 9.21573 481.284C11.5112 478.125 14.6589 475.659 18.6589 473.886C22.6589 472.114 27.2044 471.227 32.2953 471.227C37.4771 471.227 41.9998 472.114 45.8635 473.886C49.7498 475.659 52.7726 478.125 54.9316 481.284C57.0907 484.443 58.2044 488.102 58.2725 492.261H44.1248ZM81.0374 472.182V542H66.2761V472.182H81.0374ZM90.3023 542V472.182H105.064V529.83H134.996V542H90.3023ZM141.891 542V472.182H156.652V502.966H157.573L182.698 472.182H200.391L174.482 503.443L200.698 542H183.039L163.914 513.295L156.652 522.159V542H141.891ZM205.199 542V472.182H219.96V529.83H249.892V542H205.199ZM256.787 542V472.182H303.833V484.352H271.549V500.989H301.412V513.159H271.549V529.83H303.969V542H256.787ZM324.723 542H308.904L333.007 472.182H352.029L376.098 542H360.279L342.791 488.136H342.245L324.723 542ZM323.734 514.557H361.098V526.08H323.734V514.557ZM381.621 542V472.182H409.167C414.439 472.182 418.939 473.125 422.667 475.011C426.417 476.875 429.269 479.523 431.223 482.955C433.201 486.364 434.189 490.375 434.189 494.989C434.189 499.625 433.189 503.614 431.189 506.955C429.189 510.273 426.292 512.818 422.496 514.591C418.723 516.364 414.155 517.25 408.792 517.25H390.348V505.386H406.405C409.223 505.386 411.564 505 413.428 504.227C415.292 503.455 416.678 502.295 417.587 500.75C418.519 499.205 418.985 497.284 418.985 494.989C418.985 492.67 418.519 490.716 417.587 489.125C416.678 487.534 415.28 486.33 413.394 485.511C411.53 484.67 409.178 484.25 406.337 484.25H396.382V542H381.621ZM419.326 510.227L436.678 542H420.382L403.405 510.227H419.326ZM500.139 472.182V542H487.389L457.014 498.057H456.502V542H441.741V472.182H454.696L484.832 516.091H485.446V472.182H500.139Z" fill="black"/>
</g>
<g filter="url(#filter1_d_26_279)">
<path d="M213.043 329.355C212.88 327.583 212.776 325.776 212.735 323.936L212.734 318.176H303.029V285.498H212.733C212.731 184.28 212.735 34.9977 212.735 34.9977C205.422 -13.1587 137.056 -10.1489 130.182 34.9977L130.182 267.18C131.71 321.811 165.524 360.375 203.276 382.693C229.109 397.965 257.652 405.889 278.09 405.889H394.182V373.212H232.06C229.155 369.78 226.418 366.057 223.967 362.033H347.745V329.355H213.043Z" fill="#202020"/>
<g filter="url(#filter2_f_26_279)">
<mask id="mask0_26_279" style="mask-type:alpha" maskUnits="userSpaceOnUse" x="130" y="0" width="265" height="406">
<path d="M213.043 329.355C212.88 327.583 212.776 325.776 212.735 323.936L212.734 318.176H303.029V285.498H212.733C212.731 184.28 212.735 34.9977 212.735 34.9977C205.422 -13.1587 137.056 -10.1489 130.182 34.9977L130.182 267.18C131.71 321.811 165.524 360.375 203.276 382.693C229.109 397.965 257.652 405.889 278.09 405.889H394.182V373.212H232.06C229.155 369.78 226.418 366.057 223.967 362.033H347.745V329.355H213.043Z" fill="#E4E4E4"/>
</mask>
<g mask="url(#mask0_26_279)">
<path opacity="0.2" d="M245.412 81.3527C245.412 81.3527 245.408 250.24 245.412 334.12C246.695 384.523 276.371 405.889 276.371 405.889C226.063 405.889 165.434 364.964 162.859 284.469L162.859 81.3527C169.734 41.8577 238.099 39.2248 245.412 81.3527Z" fill="#FFF9F9"/>
</g>
</g>
<path d="M212.735 34.9977C212.735 34.9977 212.73 228.053 212.735 323.936C214.018 381.551 276.371 405.889 276.371 405.889C226.063 405.889 132.756 359.193 130.182 267.18L130.182 34.9977C137.056 -10.1489 205.422 -13.1587 212.735 34.9977Z" fill="url(#paint0_linear_26_279)"/>
</g>
<defs>
<filter id="filter0_d_26_279" x="0" y="471.227" width="504.139" height="79.7614" filterUnits="userSpaceOnUse" color-interpolation-filters="sRGB">
<feFlood flood-opacity="0" result="BackgroundImageFix"/>
<feColorMatrix in="SourceAlpha" type="matrix" values="0 0 0 0 0 0 0 0 0 0 0 0 0 0 0 0 0 0 127 0" result="hardAlpha"/>
<feOffset dy="4"/>
<feGaussianBlur stdDeviation="2"/>
<feComposite in2="hardAlpha" operator="out"/>
<feColorMatrix type="matrix" values="0 0 0 0 0 0 0 0 0 0 0 0 0 0 0 0 0 0 0.25 0"/>
<feBlend mode="normal" in2="BackgroundImageFix" result="effect1_dropShadow_26_279"/>
<feBlend mode="normal" in="SourceGraphic" in2="effect1_dropShadow_26_279" result="shape"/>
</filter>
<filter id="filter1_d_26_279" x="126.182" y="0" width="272" height="413.889" filterUnits="userSpaceOnUse" color-interpolation-filters="sRGB">
<feFlood flood-opacity="0" result="BackgroundImageFix"/>
<feColorMatrix in="SourceAlpha" type="matrix" values="0 0 0 0 0 0 0 0 0 0 0 0 0 0 0 0 0 0 127 0" result="hardAlpha"/>
<feOffset dy="4"/>
<feGaussianBlur stdDeviation="2"/>
<feComposite in2="hardAlpha" operator="out"/>
<feColorMatrix type="matrix" values="0 0 0 0 0 0 0 0 0 0 0 0 0 0 0 0 0 0 0.25 0"/>
<feBlend mode="normal" in2="BackgroundImageFix" result="effect1_dropShadow_26_279"/>
<feBlend mode="normal" in="SourceGraphic" in2="effect1_dropShadow_26_279" result="shape"/>
</filter>
<filter id="filter2_f_26_279" x="158.859" y="46.7361" width="121.512" height="363.153" filterUnits="userSpaceOnUse" color-interpolation-filters="sRGB">
<feFlood flood-opacity="0" result="BackgroundImageFix"/>
<feBlend mode="normal" in="SourceGraphic" in2="BackgroundImageFix" result="shape"/>
<feGaussianBlur stdDeviation="2" result="effect1_foregroundBlur_26_279"/>
</filter>
<linearGradient id="paint0_linear_26_279" x1="203.703" y1="-3.21374e-06" x2="203.703" y2="405.63" gradientUnits="userSpaceOnUse">
<stop/>
<stop offset="0.612106"/>
<stop offset="0.721154" stop-color="#1F1F1F"/>
<stop offset="1" stop-color="#363636"/>
</linearGradient>
</defs>
</svg>
