<svg width="1024" height="1024" viewBox="0 0 1024 1024" fill="none" xmlns="http://www.w3.org/2000/svg">
<rect width="1024" height="1024" fill="white"/>
<g filter="url(#filter0_d_26_57)">
<path d="M298.943 732.261C298.67 729.511 297.5 727.375 295.432 725.852C293.364 724.33 290.557 723.568 287.011 723.568C284.602 723.568 282.568 723.909 280.909 724.591C279.25 725.25 277.977 726.17 277.091 727.352C276.227 728.534 275.795 729.875 275.795 731.375C275.75 732.625 276.011 733.716 276.58 734.648C277.17 735.58 277.977 736.386 279 737.068C280.023 737.727 281.205 738.307 282.545 738.807C283.886 739.284 285.318 739.693 286.841 740.034L293.114 741.534C296.159 742.216 298.955 743.125 301.5 744.261C304.045 745.398 306.25 746.795 308.114 748.455C309.977 750.114 311.42 752.068 312.443 754.318C313.489 756.568 314.023 759.148 314.045 762.057C314.023 766.33 312.932 770.034 310.773 773.17C308.636 776.284 305.545 778.705 301.5 780.432C297.477 782.136 292.625 782.989 286.943 782.989C281.307 782.989 276.398 782.125 272.216 780.398C268.057 778.67 264.807 776.114 262.466 772.727C260.148 769.318 258.932 765.102 258.818 760.08H273.102C273.261 762.42 273.932 764.375 275.114 765.943C276.318 767.489 277.92 768.659 279.92 769.455C281.943 770.227 284.227 770.614 286.773 770.614C289.273 770.614 291.443 770.25 293.284 769.523C295.148 768.795 296.591 767.784 297.614 766.489C298.636 765.193 299.148 763.705 299.148 762.023C299.148 760.455 298.682 759.136 297.75 758.068C296.841 757 295.5 756.091 293.727 755.341C291.977 754.591 289.83 753.909 287.284 753.295L279.682 751.386C273.795 749.955 269.148 747.716 265.739 744.67C262.33 741.625 260.636 737.523 260.659 732.364C260.636 728.136 261.761 724.443 264.034 721.284C266.33 718.125 269.477 715.659 273.477 713.886C277.477 712.114 282.023 711.227 287.114 711.227C292.295 711.227 296.818 712.114 300.682 713.886C304.568 715.659 307.591 718.125 309.75 721.284C311.909 724.443 313.023 728.102 313.091 732.261H298.943ZM335.856 712.182V782H321.094V712.182H335.856ZM345.121 782V712.182H359.882V769.83H389.814V782H345.121ZM396.709 782V712.182H411.471V742.966H412.391L437.516 712.182H455.209L429.3 743.443L455.516 782H437.857L418.732 753.295L411.471 762.159V782H396.709ZM460.017 782V712.182H474.778V769.83H504.71V782H460.017ZM511.606 782V712.182H558.651V724.352H526.367V740.989H556.231V753.159H526.367V769.83H558.788V782H511.606ZM579.541 782H563.723L587.825 712.182H606.848L630.916 782H615.098L597.609 728.136H597.064L579.541 782ZM578.552 754.557H615.916V766.08H578.552V754.557ZM636.439 782V712.182H663.985C669.258 712.182 673.758 713.125 677.485 715.011C681.235 716.875 684.087 719.523 686.042 722.955C688.019 726.364 689.008 730.375 689.008 734.989C689.008 739.625 688.008 743.614 686.008 746.955C684.008 750.273 681.11 752.818 677.314 754.591C673.542 756.364 668.974 757.25 663.61 757.25H645.167V745.386H661.224C664.042 745.386 666.383 745 668.246 744.227C670.11 743.455 671.496 742.295 672.405 740.75C673.337 739.205 673.803 737.284 673.803 734.989C673.803 732.67 673.337 730.716 672.405 729.125C671.496 727.534 670.099 726.33 668.212 725.511C666.349 724.67 663.996 724.25 661.155 724.25H651.201V782H636.439ZM674.144 750.227L691.496 782H675.201L658.224 750.227H674.144ZM754.957 712.182V782H742.207L711.832 738.057H711.321V782H696.559V712.182H709.514L739.65 756.091H740.264V712.182H754.957Z" fill="black"/>
</g>
<g filter="url(#filter1_d_26_57)">
<path d="M467.861 569.355C467.698 567.583 467.594 565.776 467.553 563.936L467.553 558.176H557.847V525.498H467.552C467.549 424.28 467.553 274.998 467.553 274.998C460.24 226.841 391.875 229.851 385 274.998L385 507.18C386.529 561.811 420.342 600.375 458.094 622.693C483.928 637.965 512.47 645.889 532.909 645.889H649V613.212H486.878C483.974 609.78 481.237 606.057 478.785 602.033H602.563V569.355H467.861Z" fill="#202020"/>
<g filter="url(#filter2_f_26_57)">
<mask id="mask0_26_57" style="mask-type:alpha" maskUnits="userSpaceOnUse" x="385" y="240" width="264" height="406">
<path d="M467.861 569.355C467.698 567.583 467.594 565.776 467.553 563.936L467.553 558.176H557.847V525.498H467.552C467.549 424.28 467.553 274.998 467.553 274.998C460.24 226.841 391.875 229.851 385 274.998L385 507.18C386.529 561.811 420.342 600.375 458.094 622.693C483.928 637.965 512.47 645.889 532.909 645.889H649V613.212H486.878C483.974 609.78 481.237 606.057 478.785 602.033H602.563V569.355H467.861Z" fill="#E4E4E4"/>
</mask>
<g mask="url(#mask0_26_57)">
<path opacity="0.2" d="M500.23 321.353C500.23 321.353 500.226 490.24 500.23 574.12C501.513 624.523 531.189 645.889 531.189 645.889C480.881 645.889 420.252 604.964 417.677 524.469L417.677 321.353C424.552 281.858 492.917 279.225 500.23 321.353Z" fill="#FFF9F9"/>
</g>
</g>
<path d="M467.553 274.998C467.553 274.998 467.548 468.053 467.553 563.936C468.836 621.552 531.189 645.889 531.189 645.889C480.881 645.889 387.574 599.193 385 507.18L385 274.998C391.875 229.851 460.24 226.841 467.553 274.998Z" fill="url(#paint0_linear_26_57)"/>
</g>
<defs>
<filter id="filter0_d_26_57" x="254.818" y="711.227" width="504.139" height="79.7612" filterUnits="userSpaceOnUse" color-interpolation-filters="sRGB">
<feFlood flood-opacity="0" result="BackgroundImageFix"/>
<feColorMatrix in="SourceAlpha" type="matrix" values="0 0 0 0 0 0 0 0 0 0 0 0 0 0 0 0 0 0 127 0" result="hardAlpha"/>
<feOffset dy="4"/>
<feGaussianBlur stdDeviation="2"/>
<feComposite in2="hardAlpha" operator="out"/>
<feColorMatrix type="matrix" values="0 0 0 0 0 0 0 0 0 0 0 0 0 0 0 0 0 0 0.25 0"/>
<feBlend mode="normal" in2="BackgroundImageFix" result="effect1_dropShadow_26_57"/>
<feBlend mode="normal" in="SourceGraphic" in2="effect1_dropShadow_26_57" result="shape"/>
</filter>
<filter id="filter1_d_26_57" x="381" y="240" width="272" height="413.889" filterUnits="userSpaceOnUse" color-interpolation-filters="sRGB">
<feFlood flood-opacity="0" result="BackgroundImageFix"/>
<feColorMatrix in="SourceAlpha" type="matrix" values="0 0 0 0 0 0 0 0 0 0 0 0 0 0 0 0 0 0 127 0" result="hardAlpha"/>
<feOffset dy="4"/>
<feGaussianBlur stdDeviation="2"/>
<feComposite in2="hardAlpha" operator="out"/>
<feColorMatrix type="matrix" values="0 0 0 0 0 0 0 0 0 0 0 0 0 0 0 0 0 0 0.25 0"/>
<feBlend mode="normal" in2="BackgroundImageFix" result="effect1_dropShadow_26_57"/>
<feBlend mode="normal" in="SourceGraphic" in2="effect1_dropShadow_26_57" result="shape"/>
</filter>
<filter id="filter2_f_26_57" x="413.677" y="286.736" width="121.511" height="363.153" filterUnits="userSpaceOnUse" color-interpolation-filters="sRGB">
<feFlood flood-opacity="0" result="BackgroundImageFix"/>
<feBlend mode="normal" in="SourceGraphic" in2="BackgroundImageFix" result="shape"/>
<feGaussianBlur stdDeviation="2" result="effect1_foregroundBlur_26_57"/>
</filter>
<linearGradient id="paint0_linear_26_57" x1="458.522" y1="240" x2="458.522" y2="645.63" gradientUnits="userSpaceOnUse">
<stop/>
<stop offset="0.612106"/>
<stop offset="0.721154" stop-color="#1F1F1F"/>
<stop offset="1" stop-color="#363636"/>
</linearGradient>
</defs>
</svg>
