<svg width="782" height="157" viewBox="0 0 782 157" fill="none" xmlns="http://www.w3.org/2000/svg">
<path d="M210.304 57.38C209.962 53.9311 208.495 51.2518 205.902 49.342C203.309 47.4323 199.79 46.4774 195.345 46.4774C192.325 46.4774 189.775 46.905 187.695 47.7601C185.615 48.5867 184.019 49.7411 182.908 51.2233C181.825 52.7055 181.284 54.3872 181.284 56.2684C181.227 57.8361 181.555 59.2043 182.267 60.3729C183.008 61.5416 184.019 62.5534 185.302 63.4086C186.584 64.2352 188.065 64.962 189.746 65.5891C191.428 66.1876 193.223 66.7007 195.132 67.1283L202.996 69.0095C206.814 69.8646 210.318 71.0047 213.509 72.4299C216.701 73.8551 219.464 75.6081 221.801 77.6888C224.137 79.7696 225.946 82.2209 227.229 85.0428C228.539 87.8646 229.209 91.0998 229.237 94.7482C229.209 100.107 227.841 104.753 225.134 108.686C222.456 112.591 218.581 115.627 213.509 117.793C208.466 119.931 202.383 121 195.26 121C188.194 121 182.039 119.917 176.796 117.751C171.582 115.584 167.508 112.378 164.573 108.131C161.667 103.855 160.142 98.5677 160 92.2684H177.908C178.107 95.2043 178.948 97.6556 180.429 99.6223C181.939 101.561 183.948 103.029 186.456 104.026C188.991 104.995 191.855 105.48 195.046 105.48C198.18 105.48 200.901 105.024 203.209 104.112C205.546 103.2 207.355 101.931 208.637 100.306C209.919 98.6817 210.56 96.8147 210.56 94.7055C210.56 92.7387 209.976 91.0855 208.808 89.7458C207.668 88.4062 205.987 87.266 203.765 86.3254C201.571 85.3848 198.878 84.5297 195.687 83.7601L186.156 81.3658C178.777 79.5701 172.95 76.7625 168.676 72.943C164.402 69.1235 162.279 63.9786 162.308 57.5083C162.279 52.2066 163.69 47.5748 166.539 43.6128C169.417 39.6508 173.363 36.5582 178.378 34.3349C183.393 32.1116 189.091 31 195.473 31C201.97 31 207.64 32.1116 212.484 34.3349C217.356 36.5582 221.145 39.6508 223.852 43.6128C226.559 47.5748 227.955 52.1639 228.041 57.38H210.304Z" fill="white"/>
<path d="M256.581 32.1972V119.76H238.075V32.1972H256.581Z" fill="white"/>
<path d="M268.196 119.76V32.1972H286.702V104.496H324.227V119.76H268.196Z" fill="white"/>
<path d="M332.872 119.76V32.1972H351.378V70.8052H352.532L384.03 32.1972H406.212L373.73 71.4038L406.597 119.76H384.458L360.481 83.7601L351.378 94.8765V119.76H332.872Z" fill="white"/>
<path d="M412.239 119.76V32.1972H430.745V104.496H468.27V119.76H412.239Z" fill="white"/>
<path d="M476.915 119.76V32.1972H535.895V47.4608H495.421V68.3254H532.86V83.5891H495.421V104.496H536.066V119.76H476.915Z" fill="white"/>
<path d="M562.084 119.76H542.253L572.47 32.1972H596.318L626.492 119.76H606.661L584.736 52.2066H584.052L562.084 119.76ZM560.845 85.342H607.687V99.7933H560.845V85.342Z" fill="white"/>
<path d="M633.417 119.76V32.1972H667.95C674.56 32.1972 680.202 33.38 684.874 35.7458C689.576 38.0831 693.152 41.4038 695.602 45.7078C698.081 49.9834 699.32 55.0142 699.32 60.8005C699.32 66.6152 698.067 71.6176 695.559 75.8076C693.052 79.9691 689.419 83.1615 684.661 85.3848C679.931 87.6081 674.204 88.7197 667.48 88.7197H644.358V73.8409H664.488C668.021 73.8409 670.956 73.3563 673.292 72.3872C675.629 71.4181 677.367 69.9644 678.506 68.0261C679.675 66.0879 680.259 63.6793 680.259 60.8005C680.259 57.8931 679.675 55.4418 678.506 53.4466C677.367 51.4513 675.614 49.9406 673.249 48.9145C670.913 47.8599 667.964 47.3325 664.402 47.3325H651.923V119.76H633.417ZM680.686 79.9121L702.44 119.76H682.011L660.727 79.9121H680.686Z" fill="white"/>
<path d="M782 32.1972V119.76H766.016L727.935 64.6485H727.294V119.76H708.788V32.1972H725.029L762.81 87.266H763.579V32.1972H782Z" fill="white"/>
<path d="M31.1495 123.812C31.0881 123.146 31.049 122.467 31.0336 121.775L31.0335 119.61H64.9771V107.325H31.0331C31.0322 69.2751 31.0336 13.1564 31.0336 13.1564C28.2845 -4.94664 2.58436 -3.8152 2.1619e-05 13.1564L0 100.439C0.574605 120.976 13.286 135.473 27.4779 143.863C37.1891 149.604 47.9189 152.583 55.6023 152.583H99.2436V140.299H38.2984C37.2065 139.009 36.1775 137.609 35.2561 136.096H81.7871V123.812H31.1495Z" fill="#E4E4E4"/>
<g filter="url(#filter0_f_27_362)">
<mask id="mask0_27_362" style="mask-type:alpha" maskUnits="userSpaceOnUse" x="0" y="0" width="100" height="153">
<path d="M31.1495 123.812C31.0881 123.146 31.049 122.467 31.0336 121.775L31.0335 119.61H64.9771V107.325H31.0331C31.0322 69.2751 31.0336 13.1564 31.0336 13.1564C28.2845 -4.94664 2.58436 -3.8152 2.1619e-05 13.1564L0 100.439C0.574605 120.976 13.286 135.473 27.4779 143.863C37.1891 149.604 47.9189 152.583 55.6023 152.583H99.2436V140.299H38.2984C37.2065 139.009 36.1775 137.609 35.2561 136.096H81.7871V123.812H31.1495Z" fill="#E4E4E4"/>
</mask>
<g mask="url(#mask0_27_362)">
<path opacity="0.2" d="M43.3168 30.5823C43.3168 30.5823 43.315 94.0711 43.3168 125.603C43.7991 144.551 54.9547 152.583 54.9547 152.583C36.0429 152.583 13.251 137.198 12.2832 106.939L12.2832 30.5823C14.8676 15.7353 40.5677 14.7455 43.3168 30.5823Z" fill="black"/>
</g>
</g>
<path d="M31.0336 13.1564C31.0336 13.1564 31.0318 85.7304 31.0336 121.775C31.5159 143.434 54.9558 152.583 54.9558 152.583C36.044 152.583 0.967795 135.029 -2.27929e-06 100.439L1.93397e-05 13.1564C2.58436 -3.81519 28.2845 -4.94663 31.0336 13.1564Z" fill="url(#paint0_linear_27_362)"/>
<defs>
<filter id="filter0_f_27_362" x="8.2832" y="15.0729" width="50.6719" height="141.51" filterUnits="userSpaceOnUse" color-interpolation-filters="sRGB">
<feFlood flood-opacity="0" result="BackgroundImageFix"/>
<feBlend mode="normal" in="SourceGraphic" in2="BackgroundImageFix" result="shape"/>
<feGaussianBlur stdDeviation="2" result="effect1_foregroundBlur_27_362"/>
</filter>
<linearGradient id="paint0_linear_27_362" x1="27.6385" y1="1.40507e-05" x2="27.6385" y2="152.485" gradientUnits="userSpaceOnUse">
<stop stop-color="white"/>
<stop offset="0.612106" stop-color="white"/>
<stop offset="0.721154" stop-color="#DEDEDE"/>
<stop offset="1" stop-color="#A9A9A9"/>
</linearGradient>
</defs>
</svg>
