<svg xmlns="http://www.w3.org/2000/svg" version="1.1" xmlns:xlink="http://www.w3.org/1999/xlink" width="1000" height="1000"><style>
    #light-icon {
      display: inline;
    }
    #dark-icon {
      display: none;
    }

    @media (prefers-color-scheme: dark) {
      #light-icon {
        display: none;
      }
      #dark-icon {
        display: inline;
      }
    }
  </style><g id="light-icon"><svg xmlns="http://www.w3.org/2000/svg" version="1.1" xmlns:xlink="http://www.w3.org/1999/xlink" width="1000" height="1000"><g clip-path="url(#SvgjsClipPath1434)"><rect width="1000" height="1000" fill="#162f58"></rect><g transform="matrix(1.2605042016806722,0,0,1.2605042016806722,306.51260504201684,200)"><svg xmlns="http://www.w3.org/2000/svg" width="307" height="476" viewBox="0 0 307 476" fill="none"><path d="M96.3578 383C96.1679 380.939 96.0468 378.838 95.9991 376.698L95.9988 370H201V332H95.9976C95.995 214.295 95.9991 40.6981 95.9991 40.6981C87.4951 -15.3019 7.99445 -11.8019 6.68761e-05 40.6981L0 310.698C1.77748 374.227 41.0988 419.072 84.9999 445.025C115.041 462.785 148.232 472 172 472H307V434H118.472C115.094 430.009 111.911 425.68 109.061 421H253V383H96.3578Z" fill="#E4E4E4"></path><g filter="url(#filter0_f_26_223)">
<mask id="mask0_26_223" style="mask-type:alpha" maskUnits="userSpaceOnUse" x="0" y="0" width="307" height="472">
<path d="M96.3578 383C96.1679 380.939 96.0468 378.838 95.9991 376.698L95.9988 370H201V332H95.9976C95.995 214.295 95.9991 40.6981 95.9991 40.6981C87.4951 -15.3019 7.99445 -11.8019 6.68761e-05 40.6981L0 310.698C1.77748 374.227 41.0988 419.072 84.9999 445.025C115.041 462.785 148.232 472 172 472H307V434H118.472C115.094 430.009 111.911 425.68 109.061 421H253V383H96.3578Z" fill="#E4E4E4"></path>
</mask>
<g mask="url(#mask0_26_223)">
<path opacity="0.2" d="M133.999 94.6033C133.999 94.6033 133.994 290.999 133.999 388.541C135.491 447.153 170 472 170 472C111.498 472 40.9938 424.408 38 330.803L38.0001 94.6033C45.9944 48.6755 125.495 45.6137 133.999 94.6033Z" fill="black"></path>
</g>
</g><path d="M95.9991 40.6981C95.9991 40.6981 95.9938 265.198 95.9991 376.698C97.4912 443.698 170 472 170 472C111.498 472 2.99377 417.698 -7.05073e-06 310.698L5.98253e-05 40.6981C7.99445 -11.8019 87.4951 -15.3019 95.9991 40.6981Z" fill="url(#paint0_linear_26_223)"></path><defs>
<filter id="filter0_f_26_223" x="34" y="55" width="140" height="421" filterUnits="userSpaceOnUse" color-interpolation-filters="sRGB">
<feFlood flood-opacity="0" result="BackgroundImageFix"></feFlood>
<feBlend mode="normal" in="SourceGraphic" in2="BackgroundImageFix" result="shape"></feBlend>
<feGaussianBlur stdDeviation="2" result="effect1_foregroundBlur_26_223"></feGaussianBlur>
</filter>
<linearGradient id="paint0_linear_26_223" x1="85.4969" y1="2.67804e-05" x2="85.4969" y2="471.698" gradientUnits="userSpaceOnUse">
<stop stop-color="white"></stop>
<stop offset="0.612106" stop-color="white"></stop>
<stop offset="0.721154" stop-color="#DEDEDE"></stop>
<stop offset="1" stop-color="#A9A9A9"></stop>
</linearGradient>
<clipPath id="SvgjsClipPath1434"><rect width="1000" height="1000" x="0" y="0" rx="250" ry="250"></rect></clipPath></defs></svg></g></g></svg></g><g id="dark-icon"><svg xmlns="http://www.w3.org/2000/svg" version="1.1" xmlns:xlink="http://www.w3.org/1999/xlink" width="1000" height="1000"><g><g transform="matrix(2.100840336134454,0,0,2.100840336134454,177.52100840336135,0)"><svg xmlns="http://www.w3.org/2000/svg" width="307" height="476" viewBox="0 0 307 476" fill="none"><path d="M96.3578 383C96.1679 380.939 96.0468 378.838 95.9991 376.698L95.9988 370H201V332H95.9976C95.995 214.295 95.9991 40.6981 95.9991 40.6981C87.4951 -15.3019 7.99445 -11.8019 6.68761e-05 40.6981L0 310.698C1.77748 374.227 41.0988 419.072 84.9999 445.025C115.041 462.785 148.232 472 172 472H307V434H118.472C115.094 430.009 111.911 425.68 109.061 421H253V383H96.3578Z" fill="#E4E4E4"></path><g filter="url(#filter0_f_26_223)">
<mask id="mask0_26_223" style="mask-type:alpha" maskUnits="userSpaceOnUse" x="0" y="0" width="307" height="472">
<path d="M96.3578 383C96.1679 380.939 96.0468 378.838 95.9991 376.698L95.9988 370H201V332H95.9976C95.995 214.295 95.9991 40.6981 95.9991 40.6981C87.4951 -15.3019 7.99445 -11.8019 6.68761e-05 40.6981L0 310.698C1.77748 374.227 41.0988 419.072 84.9999 445.025C115.041 462.785 148.232 472 172 472H307V434H118.472C115.094 430.009 111.911 425.68 109.061 421H253V383H96.3578Z" fill="#E4E4E4"></path>
</mask>
<g mask="url(#mask0_26_223)">
<path opacity="0.2" d="M133.999 94.6033C133.999 94.6033 133.994 290.999 133.999 388.541C135.491 447.153 170 472 170 472C111.498 472 40.9938 424.408 38 330.803L38.0001 94.6033C45.9944 48.6755 125.495 45.6137 133.999 94.6033Z" fill="black"></path>
</g>
</g><path d="M95.9991 40.6981C95.9991 40.6981 95.9938 265.198 95.9991 376.698C97.4912 443.698 170 472 170 472C111.498 472 2.99377 417.698 -7.05073e-06 310.698L5.98253e-05 40.6981C7.99445 -11.8019 87.4951 -15.3019 95.9991 40.6981Z" fill="url(#paint0_linear_26_223)"></path><defs>
<filter id="filter0_f_26_223" x="34" y="55" width="140" height="421" filterUnits="userSpaceOnUse" color-interpolation-filters="sRGB">
<feFlood flood-opacity="0" result="BackgroundImageFix"></feFlood>
<feBlend mode="normal" in="SourceGraphic" in2="BackgroundImageFix" result="shape"></feBlend>
<feGaussianBlur stdDeviation="2" result="effect1_foregroundBlur_26_223"></feGaussianBlur>
</filter>
<linearGradient id="paint0_linear_26_223" x1="85.4969" y1="2.67804e-05" x2="85.4969" y2="471.698" gradientUnits="userSpaceOnUse">
<stop stop-color="white"></stop>
<stop offset="0.612106" stop-color="white"></stop>
<stop offset="0.721154" stop-color="#DEDEDE"></stop>
<stop offset="1" stop-color="#A9A9A9"></stop>
</linearGradient>
</defs></svg></g></g></svg></g></svg>